<svg width="23" height="23" viewBox="0 0 23 23" fill="none" xmlns="http://www.w3.org/2000/svg">
<path d="M22.335 3.36494L20.0849 1.11494C19.8656 0.895486 19.5096 0.895169 19.29 1.11466C19.29 1.1148 19.2899 1.11494 19.2896 1.11494L12.5397 7.86505C12.4875 7.91722 12.4461 7.97919 12.4178 8.0474C12.3895 8.11561 12.375 8.18873 12.375 8.26256V10.5127C12.375 10.8232 12.6268 11.0751 12.9374 11.0751H15.1875C15.3367 11.0751 15.4796 11.0159 15.585 10.9104L22.335 4.16039C22.5547 3.94094 22.5548 3.58496 22.3354 3.36536C22.3353 3.36536 22.3353 3.36508 22.335 3.36494ZM14.9546 9.95023H13.4999V8.49568L19.6874 2.30819L21.142 3.76274L14.9546 9.95023Z" fill="white"/>
<path d="M20.8124 7.70019C20.5018 7.70019 20.25 7.95205 20.25 8.26259V16.1376C20.2491 17.0691 19.4941 17.8242 18.5625 17.8252H12.9375C12.8157 17.825 12.6972 17.8644 12.5999 17.9377L9 20.6377V18.3877C9 18.077 8.74821 17.8252 8.4375 17.8252H2.81251C1.88095 17.8242 1.12593 17.0691 1.12512 16.1377V6.01259C1.12611 5.08117 1.88095 4.32619 2.81251 4.32521H12.9375C13.2481 4.32521 13.5 4.07342 13.5 3.76273C13.5 3.45215 13.2482 3.20036 12.9375 3.20036H2.81251C1.25986 3.20188 0.00151468 4.46019 0 6.01256V16.1377C0.00151468 17.6902 1.25986 18.9485 2.81251 18.9502H7.87502V21.7627C7.87502 22.0732 8.12681 22.3251 8.4375 22.3251C8.55927 22.3251 8.67762 22.2856 8.77502 22.2126L13.1256 18.9501H18.5626C20.1152 18.9485 21.3734 17.6902 21.375 16.1375V8.26273C21.375 7.95205 21.1231 7.70019 20.8124 7.70019Z" fill="white"/>
<path d="M9.56239 6.57521H3.93765C3.62682 6.57521 3.37504 6.82703 3.37504 7.13775C3.37504 7.4483 3.62682 7.70009 3.93765 7.70009H9.56239C9.87307 7.70009 10.125 7.4483 10.125 7.13772C10.125 6.82703 9.87307 6.57521 9.56239 6.57521ZM3.93765 11.0752H9.56239C9.87307 11.0752 10.125 10.8233 10.125 10.5127C10.125 10.2021 9.87307 9.9502 9.56239 9.9502H3.93765C3.62682 9.9502 3.375 10.2021 3.375 10.5127C3.375 10.8233 3.62682 11.0752 3.93765 11.0752ZM3.93765 14.4501H17.4375C17.7482 14.4501 17.9999 14.1983 17.9999 13.8876C17.9999 13.577 17.7481 13.3252 17.4375 13.3252H3.93765C3.62682 13.3252 3.375 13.577 3.375 13.8876C3.375 14.1983 3.62682 14.4501 3.93765 14.4501Z" fill="white"/>
</svg>
