<svg width="24" height="25" viewBox="0 0 24 25" fill="none" xmlns="http://www.w3.org/2000/svg">
<g clip-path="url(#clip0_1_2203)">
<path d="M23.7448 10.7032L12.3684 2.37365C12.2615 2.29539 12.1325 2.2532 12.0001 2.2532C11.8676 2.2532 11.7386 2.29539 11.6317 2.37365L0.255261 10.7032C-0.0226135 10.9067 -0.0829885 11.2969 0.120496 11.5747C0.32398 11.8526 0.714215 11.9129 0.992043 11.7095L12 3.64963L23.008 11.7095C23.1147 11.7878 23.2436 11.83 23.3759 11.8299C23.5679 11.8299 23.7574 11.7416 23.8795 11.5747C24.083 11.2969 24.0227 10.9067 23.7448 10.7032Z" fill="black"/>
<path d="M20.7301 11.8506C20.3857 11.8506 20.1065 12.1298 20.1065 12.4742V22.4H15.118V16.9819C15.118 15.2625 13.7191 13.8637 11.9999 13.8637C10.2806 13.8637 8.88173 15.2626 8.88173 16.9819V22.4H3.89315V12.4743C3.89315 12.1299 3.61392 11.8507 3.26957 11.8507C2.92523 11.8507 2.646 12.1299 2.646 12.4743V23.0236C2.646 23.368 2.92523 23.6472 3.26957 23.6472H9.50531C9.83325 23.6472 10.1016 23.3938 10.1264 23.0722C10.1279 23.0576 10.1289 23.0417 10.1289 23.0236V16.9819C10.1289 15.9502 10.9682 15.1109 11.9999 15.1109C13.0315 15.1109 13.8708 15.9503 13.8708 16.9819V23.0236C13.8708 23.0416 13.8718 23.0572 13.8733 23.0716C13.8978 23.3935 14.1663 23.6472 14.4944 23.6472H20.7301C21.0745 23.6472 21.3537 23.368 21.3537 23.0236V12.4743C21.3537 12.1298 21.0745 11.8506 20.7301 11.8506Z" fill="black"/>
</g>
<defs>
<clipPath id="clip0_1_2203">
<rect width="24" height="24" fill="white" transform="translate(0 0.950195)"/>
</clipPath>
</defs>
</svg>
