<svg width="196" height="42" viewBox="0 0 196 42" fill="none" xmlns="http://www.w3.org/2000/svg">
<path d="M39.7784 0H2.13773C1.57077 0 1.02701 0.225693 0.62611 0.627398C0.225206 1.0291 0 1.57395 0 2.14204V20.1006C0 20.6687 0.225206 21.2135 0.62611 21.6152C1.02701 22.017 1.57077 22.2426 2.13773 22.2426H9.86194V39.858C9.86194 40.4261 10.0871 40.9709 10.4881 41.3726C10.889 41.7743 11.4327 42 11.9997 42H29.9224C30.2029 42 30.4805 41.9445 30.7396 41.8368C30.9986 41.7291 31.2339 41.5712 31.4319 41.3722C31.63 41.1733 31.7869 40.9371 31.8937 40.6772C32.0004 40.4174 32.055 40.139 32.0542 39.858V22.2426H39.7784C40.3454 22.2426 40.8892 22.017 41.2901 21.6152C41.691 21.2135 41.9162 20.6687 41.9162 20.1006V2.14204C41.9162 1.57395 41.691 1.0291 41.2901 0.627398C40.8892 0.225693 40.3454 0 39.7784 0ZM2.48025 2.48521H19.718V19.7574H2.48025V2.48521ZM29.5799 39.5148H12.3363V22.2426H29.5799V39.5148ZM39.4477 19.7574H22.1982V2.48521H39.4477V19.7574Z" fill="#6C5DD3"/>
<path d="M14.33 13.1596C14.4464 13.2663 14.5844 13.3507 14.7362 13.408C14.888 13.4654 15.0505 13.4945 15.2145 13.4938C15.3777 13.4947 15.5394 13.4656 15.6902 13.4082C15.8411 13.3509 15.9781 13.2663 16.0931 13.1596C16.2116 13.0525 16.3057 12.9246 16.37 12.7835C16.4342 12.6424 16.4673 12.4909 16.4673 12.3378C16.4673 12.1847 16.4342 12.0332 16.37 11.8921C16.3057 11.751 16.2116 11.6231 16.0931 11.516L12.1156 7.84532C11.9995 7.73599 11.861 7.64911 11.7081 7.58982C11.5552 7.53052 11.391 7.5 11.2251 7.5C11.0593 7.5 10.8951 7.53052 10.7422 7.58982C10.5893 7.64911 10.4507 7.73599 10.3346 7.84532L6.35714 11.516C6.12097 11.7339 5.98828 12.0296 5.98828 12.3378C5.98828 12.646 6.12097 12.9416 6.35714 13.1596C6.59332 13.3775 6.91364 13.5 7.24763 13.5C7.58163 13.5 7.90195 13.3775 8.13812 13.1596L11.237 10.2998L14.33 13.1596Z" fill="#6C5DD3"/>
<path d="M27.5753 13.155L30.6742 10.2975L33.7731 13.155C33.8892 13.2642 34.0277 13.351 34.1806 13.4103C34.3335 13.4695 34.4977 13.5 34.6636 13.5C34.8294 13.5 34.9936 13.4695 35.1465 13.4103C35.2995 13.351 35.438 13.2642 35.5541 13.155C35.6725 13.0479 35.7667 12.9202 35.8309 12.7792C35.8952 12.6382 35.9283 12.4868 35.9283 12.3338C35.9283 12.1809 35.8952 12.0295 35.8309 11.8885C35.7667 11.7475 35.6725 11.6197 35.5541 11.5127L31.5765 7.84504C31.4605 7.7358 31.3219 7.64899 31.169 7.58974C31.0161 7.5305 30.8519 7.5 30.6861 7.5C30.5202 7.5 30.356 7.5305 30.2031 7.58974C30.0502 7.64899 29.9116 7.7358 29.7956 7.84504L25.8181 11.5127C25.5819 11.7305 25.4492 12.0259 25.4492 12.3338C25.4492 12.6418 25.5819 12.9372 25.8181 13.155C26.0543 13.3727 26.3746 13.4951 26.7086 13.4951C27.0426 13.4951 27.3629 13.3727 27.5991 13.155H27.5753Z" fill="#6C5DD3"/>
<path d="M17.427 28.8403C17.1571 28.6224 16.791 28.5 16.4093 28.5C16.0277 28.5 15.6616 28.6224 15.3917 28.8403C15.1218 29.0581 14.9702 29.3536 14.9702 29.6617C14.9702 29.9699 15.1218 30.2654 15.3917 30.4832L19.944 34.1525C20.0761 34.2624 20.2343 34.3498 20.4091 34.4095C20.584 34.4693 20.7718 34.5 20.9616 34.5C21.1514 34.5 21.3393 34.4693 21.5141 34.4095C21.6889 34.3498 21.8471 34.2624 21.9793 34.1525L26.5247 30.4832C26.7946 30.2654 26.9463 29.9699 26.9463 29.6617C26.9463 29.3536 26.7946 29.0581 26.5247 28.8403C26.2548 28.6224 25.8888 28.5 25.5071 28.5C25.1254 28.5 24.7593 28.6224 24.4894 28.8403L20.9684 31.6771L17.427 28.8403Z" fill="#6C5DD3"/>
<path d="M62.5361 21.1782H58.7319V18.7788H62.5361C63.124 18.7788 63.6025 18.6831 63.9717 18.4917C64.3408 18.2935 64.6108 18.02 64.7817 17.6714C64.9526 17.3228 65.0381 16.9297 65.0381 16.4922C65.0381 16.0479 64.9526 15.6343 64.7817 15.2515C64.6108 14.8687 64.3408 14.561 63.9717 14.3286C63.6025 14.0962 63.124 13.98 62.5361 13.98H59.7983V26.5H56.7222V11.5703H62.5361C63.7051 11.5703 64.7065 11.7822 65.5405 12.2061C66.3813 12.623 67.0239 13.2007 67.4683 13.939C67.9126 14.6772 68.1348 15.5215 68.1348 16.4717C68.1348 17.4355 67.9126 18.2695 67.4683 18.9736C67.0239 19.6777 66.3813 20.2212 65.5405 20.604C64.7065 20.9868 63.7051 21.1782 62.5361 21.1782ZM73.0259 17.8252V26.5H70.0728V15.4053H72.8516L73.0259 17.8252ZM76.3687 15.3335L76.3174 18.0713C76.1738 18.0508 75.9995 18.0337 75.7944 18.02C75.5962 17.9995 75.415 17.9893 75.251 17.9893C74.834 17.9893 74.4717 18.0439 74.1641 18.1533C73.8633 18.2559 73.6104 18.4097 73.4053 18.6147C73.207 18.8198 73.0566 19.0693 72.9541 19.3633C72.8584 19.6572 72.8037 19.9922 72.79 20.3682L72.1953 20.1836C72.1953 19.4658 72.2671 18.8062 72.4106 18.2046C72.5542 17.5962 72.7627 17.0664 73.0361 16.6152C73.3164 16.1641 73.6582 15.8154 74.0615 15.5693C74.4648 15.3232 74.9263 15.2002 75.4458 15.2002C75.6099 15.2002 75.7773 15.2139 75.9482 15.2412C76.1191 15.2617 76.2593 15.2925 76.3687 15.3335ZM76.9839 21.0654V20.8501C76.9839 20.0366 77.1001 19.2881 77.3325 18.6045C77.5649 17.9141 77.9033 17.3159 78.3477 16.8101C78.792 16.3042 79.3389 15.9111 79.9883 15.6309C80.6377 15.3438 81.3828 15.2002 82.2236 15.2002C83.0645 15.2002 83.813 15.3438 84.4692 15.6309C85.1255 15.9111 85.6758 16.3042 86.1201 16.8101C86.5713 17.3159 86.9131 17.9141 87.1455 18.6045C87.3779 19.2881 87.4941 20.0366 87.4941 20.8501V21.0654C87.4941 21.8721 87.3779 22.6206 87.1455 23.311C86.9131 23.9946 86.5713 24.5928 86.1201 25.1055C85.6758 25.6113 85.1289 26.0044 84.4795 26.2847C83.8301 26.5649 83.085 26.7051 82.2441 26.7051C81.4033 26.7051 80.6548 26.5649 79.9985 26.2847C79.3491 26.0044 78.7988 25.6113 78.3477 25.1055C77.9033 24.5928 77.5649 23.9946 77.3325 23.311C77.1001 22.6206 76.9839 21.8721 76.9839 21.0654ZM79.937 20.8501V21.0654C79.937 21.5303 79.978 21.9644 80.0601 22.3677C80.1421 22.771 80.272 23.1265 80.4497 23.4341C80.6343 23.7349 80.8735 23.9707 81.1675 24.1416C81.4614 24.3125 81.8203 24.3979 82.2441 24.3979C82.6543 24.3979 83.0063 24.3125 83.3003 24.1416C83.5942 23.9707 83.8301 23.7349 84.0078 23.4341C84.1855 23.1265 84.3154 22.771 84.3975 22.3677C84.4863 21.9644 84.5308 21.5303 84.5308 21.0654V20.8501C84.5308 20.3989 84.4863 19.9751 84.3975 19.5786C84.3154 19.1753 84.1821 18.8198 83.9976 18.5122C83.8198 18.1978 83.584 17.9517 83.29 17.7739C82.9961 17.5962 82.6406 17.5073 82.2236 17.5073C81.8066 17.5073 81.4512 17.5962 81.1572 17.7739C80.8701 17.9517 80.6343 18.1978 80.4497 18.5122C80.272 18.8198 80.1421 19.1753 80.0601 19.5786C79.978 19.9751 79.937 20.3989 79.937 20.8501ZM95.8613 24.0801V10.75H98.835V26.5H96.1587L95.8613 24.0801ZM88.8477 21.0859V20.8706C88.8477 20.0229 88.9434 19.2539 89.1348 18.5635C89.3262 17.8662 89.6064 17.2681 89.9756 16.769C90.3447 16.27 90.7993 15.8838 91.3394 15.6104C91.8794 15.3369 92.4946 15.2002 93.1851 15.2002C93.8345 15.2002 94.4019 15.3369 94.8872 15.6104C95.3794 15.8838 95.7964 16.2734 96.1382 16.7793C96.4868 17.2783 96.7671 17.8696 96.979 18.5532C97.1909 19.23 97.3447 19.9717 97.4404 20.7783V21.25C97.3447 22.0225 97.1909 22.7402 96.979 23.4033C96.7671 24.0664 96.4868 24.6475 96.1382 25.1465C95.7964 25.6387 95.3794 26.0215 94.8872 26.2949C94.395 26.5684 93.8208 26.7051 93.1646 26.7051C92.4741 26.7051 91.8589 26.5649 91.3188 26.2847C90.7856 26.0044 90.3345 25.6113 89.9653 25.1055C89.603 24.5996 89.3262 24.0049 89.1348 23.3213C88.9434 22.6377 88.8477 21.8926 88.8477 21.0859ZM91.8008 20.8706V21.0859C91.8008 21.5439 91.835 21.9712 91.9033 22.3677C91.9785 22.7642 92.0981 23.1162 92.2622 23.4238C92.4331 23.7246 92.6519 23.9604 92.9185 24.1313C93.1919 24.2954 93.5234 24.3774 93.9131 24.3774C94.4189 24.3774 94.8359 24.2646 95.1641 24.0391C95.4922 23.8066 95.7417 23.4888 95.9126 23.0854C96.0903 22.6821 96.1929 22.2173 96.2202 21.6909V20.3477C96.1997 19.917 96.1382 19.5308 96.0356 19.189C95.9399 18.8403 95.7964 18.543 95.605 18.2969C95.4204 18.0508 95.188 17.8594 94.9077 17.7227C94.6343 17.5859 94.3096 17.5176 93.9336 17.5176C93.5508 17.5176 93.2227 17.6064 92.9492 17.7842C92.6758 17.9551 92.4536 18.1909 92.2827 18.4917C92.1187 18.7925 91.9956 19.1479 91.9136 19.5581C91.8384 19.9614 91.8008 20.3989 91.8008 20.8706ZM107.705 23.8442V15.4053H110.658V26.5H107.879L107.705 23.8442ZM108.033 21.5679L108.904 21.5474C108.904 22.2856 108.819 22.9727 108.648 23.6084C108.477 24.2373 108.221 24.7842 107.879 25.249C107.537 25.707 107.106 26.0659 106.587 26.3257C106.067 26.5786 105.456 26.7051 104.751 26.7051C104.211 26.7051 103.712 26.6299 103.254 26.4795C102.803 26.3223 102.414 26.0796 102.085 25.7515C101.764 25.4165 101.511 24.9893 101.327 24.4697C101.149 23.9434 101.06 23.311 101.06 22.5728V15.4053H104.013V22.5933C104.013 22.9214 104.051 23.1982 104.126 23.4238C104.208 23.6494 104.321 23.834 104.464 23.9775C104.608 24.1211 104.775 24.2236 104.967 24.2852C105.165 24.3467 105.384 24.3774 105.623 24.3774C106.231 24.3774 106.71 24.2544 107.059 24.0083C107.414 23.7622 107.664 23.4272 107.807 23.0034C107.958 22.5728 108.033 22.0942 108.033 21.5679ZM117.497 24.3979C117.859 24.3979 118.181 24.3296 118.461 24.1929C118.741 24.0493 118.96 23.8511 119.117 23.5981C119.281 23.3384 119.367 23.0342 119.374 22.6855H122.152C122.146 23.4648 121.937 24.1587 121.527 24.7671C121.117 25.3687 120.566 25.8438 119.876 26.1924C119.186 26.5342 118.413 26.7051 117.559 26.7051C116.697 26.7051 115.945 26.5615 115.303 26.2744C114.667 25.9873 114.137 25.5908 113.713 25.085C113.29 24.5723 112.972 23.9775 112.76 23.3008C112.548 22.6172 112.442 21.8857 112.442 21.1064V20.8091C112.442 20.0229 112.548 19.2915 112.76 18.6147C112.972 17.9312 113.29 17.3364 113.713 16.8306C114.137 16.3179 114.667 15.918 115.303 15.6309C115.938 15.3438 116.684 15.2002 117.538 15.2002C118.447 15.2002 119.244 15.3745 119.927 15.7231C120.618 16.0718 121.158 16.5708 121.547 17.2202C121.944 17.8628 122.146 18.625 122.152 19.5068H119.374C119.367 19.1377 119.288 18.8027 119.138 18.502C118.994 18.2012 118.782 17.9619 118.502 17.7842C118.229 17.5996 117.89 17.5073 117.487 17.5073C117.056 17.5073 116.704 17.5996 116.431 17.7842C116.157 17.9619 115.945 18.208 115.795 18.5225C115.645 18.8301 115.539 19.1821 115.477 19.5786C115.422 19.9683 115.395 20.3784 115.395 20.8091V21.1064C115.395 21.5371 115.422 21.9507 115.477 22.3472C115.532 22.7437 115.634 23.0957 115.785 23.4033C115.942 23.7109 116.157 23.9536 116.431 24.1313C116.704 24.3091 117.06 24.3979 117.497 24.3979ZM129.299 15.4053V17.4971H122.839V15.4053H129.299ZM124.439 12.6675H127.392V23.1572C127.392 23.4785 127.433 23.7246 127.515 23.8955C127.604 24.0664 127.734 24.186 127.905 24.2544C128.076 24.3159 128.291 24.3467 128.551 24.3467C128.735 24.3467 128.899 24.3398 129.043 24.3262C129.193 24.3057 129.32 24.2852 129.422 24.2646L129.433 26.4385C129.18 26.5205 128.906 26.5854 128.612 26.6333C128.318 26.6812 127.994 26.7051 127.638 26.7051C126.989 26.7051 126.421 26.5991 125.936 26.3872C125.458 26.1685 125.088 25.8198 124.829 25.3413C124.569 24.8628 124.439 24.2339 124.439 23.4546V12.6675ZM134.098 10.75V26.5H131.135V10.75H134.098ZM139.83 25.249L142.773 15.4053H145.941L141.481 28.1714C141.385 28.4517 141.255 28.7524 141.091 29.0737C140.934 29.395 140.719 29.6992 140.445 29.9863C140.179 30.2803 139.84 30.5195 139.43 30.7041C139.027 30.8887 138.531 30.981 137.943 30.981C137.663 30.981 137.434 30.9639 137.256 30.9297C137.079 30.8955 136.867 30.8477 136.621 30.7861V28.6226C136.696 28.6226 136.774 28.6226 136.856 28.6226C136.938 28.6294 137.017 28.6328 137.092 28.6328C137.482 28.6328 137.8 28.5884 138.046 28.4995C138.292 28.4106 138.49 28.2739 138.641 28.0894C138.791 27.9116 138.911 27.6792 139 27.3921L139.83 25.249ZM138.6 15.4053L141.009 23.4443L141.43 26.5718L139.42 26.7871L135.431 15.4053H138.6ZM153.375 14.1235L149.315 26.5H146.044L151.591 11.5703H153.673L153.375 14.1235ZM156.749 26.5L152.678 14.1235L152.35 11.5703H154.452L160.03 26.5H156.749ZM156.564 20.9424V23.3521H148.679V20.9424H156.564ZM164.686 11.5703V26.5H161.62V11.5703H164.686Z" fill="#6C5DD3"/>
</svg>
